<?xml version="1.0" standalone="no"?>
<!DOCTYPE svg PUBLIC "-//W3C//DTD SVG 20010904//EN"
 "http://www.w3.org/TR/2001/REC-SVG-20010904/DTD/svg10.dtd">
<svg version="1.0" xmlns="http://www.w3.org/2000/svg"
 width="474.000000pt" height="480.000000pt" viewBox="0 0 474.000000 480.000000"
 preserveAspectRatio="xMidYMid meet">

<g transform="translate(0.000000,480.000000) scale(0.100000,-0.100000)"
fill="#000000" stroke="none">
<path d="M2398 3984 c-2 -355 -1 -649 2 -652 3 -4 23 -17 45 -29 44 -23 62
-34 195 -112 51 -29 104 -60 118 -68 15 -8 47 -27 72 -43 25 -16 63 -39 85
-51 22 -12 109 -62 192 -111 86 -50 158 -86 164 -82 7 4 9 3 6 -3 -4 -6 28
-30 71 -56 42 -24 93 -54 112 -65 l35 -21 -5 660 -5 660 -50 28 c-27 15 -77
43 -110 61 -33 18 -77 44 -97 57 -21 13 -40 23 -43 23 -3 0 -24 11 -46 26 -22
14 -57 34 -77 46 -106 59 -620 352 -639 364 l-23 14 -2 -646z"/>
<path d="M2325 4601 c-16 -10 -230 -134 -475 -276 -245 -141 -469 -271 -497
-288 l-53 -31 -2 -648 c-2 -375 1 -648 6 -648 5 0 57 28 115 61 58 34 174 100
256 148 83 48 273 158 423 245 l272 158 0 649 c0 357 -3 649 -7 649 -5 0 -21
-9 -38 -19z"/>
<path d="M1255 2659 c-16 -10 -61 -37 -100 -59 -38 -23 -83 -50 -100 -60 -16
-11 -39 -24 -50 -29 -77 -38 -360 -211 -358 -220 2 -6 -4 -8 -12 -5 -8 3 -43
-12 -77 -33 -63 -40 -230 -137 -329 -192 l-54 -30 -3 -600 c-1 -331 0 -601 3
-601 8 0 93 48 125 70 14 9 61 36 105 60 44 24 82 47 83 52 2 4 9 8 16 8 7 0
31 12 52 26 21 15 73 46 114 69 41 23 91 51 110 62 19 11 58 32 85 47 28 16
55 32 60 36 6 4 30 19 55 32 25 14 77 44 115 67 39 22 100 55 137 73 l67 33
-6 605 c-3 333 -6 606 -7 606 0 1 -14 -7 -31 -17z"/>
<path d="M1600 2261 l0 -421 27 -6 c15 -4 132 -4 262 0 218 6 238 8 286 30
168 77 182 316 23 397 l-37 19 42 43 c84 83 87 192 10 278 -63 70 -77 73 -360
77 l-253 4 0 -421z m453 267 c34 -18 46 -40 47 -83 0 -84 -42 -105 -217 -105
l-113 0 0 100 0 100 131 0 c80 0 139 -4 152 -12z m34 -348 c51 -34 60 -125 15
-170 -33 -33 -101 -43 -242 -38 l-85 3 -3 113 -3 114 148 -4 c107 -2 154 -7
170 -18z"/>
<path d="M2462 2258 l3 -423 80 0 80 0 5 132 5 133 69 67 c37 38 70 64 72 58
6 -15 215 -368 225 -381 10 -12 192 -20 209 -9 5 3 -64 117 -152 253 -89 136
-161 252 -162 258 -1 12 62 82 218 242 l91 92 -115 -1 -115 0 -170 -186 -170
-186 -3 187 -2 186 -85 0 -85 0 2 -422z"/>
<path d="M3497 2293 c-4 -202 -7 -474 -7 -604 0 -223 1 -237 19 -242 10 -2
262 -145 559 -316 298 -171 544 -311 547 -311 3 0 4 271 3 602 l-3 602 -70 41
c-206 124 -1011 588 -1025 592 -15 4 -17 -26 -23 -364z"/>
<path d="M2652 1749 c-54 -27 -76 -67 -76 -139 0 -91 39 -141 123 -154 57 -8
131 37 131 80 0 20 -40 24 -48 6 -9 -24 -44 -51 -65 -52 -23 0 -58 19 -74 39
-20 27 -26 105 -10 142 25 61 94 76 135 29 16 -20 62 -28 62 -11 0 21 -44 61
-78 71 -49 13 -51 13 -100 -11z"/>
<path d="M1600 1741 c0 -17 8 -20 48 -23 l47 -3 3 -133 c3 -131 3 -133 25
-130 21 3 22 7 25 136 l3 132 44 0 c38 0 45 3 45 20 0 19 -7 20 -120 20 -112
0 -120 -1 -120 -19z"/>
<path d="M1900 1605 l0 -155 25 0 c24 0 25 3 25 60 l0 60 45 0 c118 0 174 82
109 159 -25 30 -28 31 -115 31 l-89 0 0 -155z m164 93 c21 -30 20 -44 -4 -68
-14 -14 -33 -20 -65 -20 l-45 0 0 55 0 55 49 0 c40 0 53 -4 65 -22z"/>
<path d="M2267 1643 c-8 -173 -6 -187 21 -191 21 -3 22 0 22 66 0 80 2 82 86
82 l54 0 0 -69 c0 -68 7 -81 41 -81 5 0 9 68 9 155 l0 155 -26 0 c-24 0 -26
-2 -24 -47 4 -84 5 -83 -47 -83 -88 0 -93 4 -93 71 0 51 -3 59 -19 59 -17 0
-19 -11 -24 -117z"/>
<path d="M2905 1609 c0 -150 0 -152 23 -155 22 -4 22 -3 22 111 0 164 25 154
56 -22 13 -74 20 -88 45 -91 24 -3 26 2 47 85 12 48 25 105 28 126 6 34 23 52
24 25 1 -7 2 -62 3 -123 2 -106 3 -110 25 -113 l22 -3 0 155 0 156 -44 0 c-40
0 -44 -2 -48 -27 -22 -130 -70 -231 -75 -157 0 15 -11 62 -23 105 l-23 79 -41
0 -41 0 0 -151z"/>
<path d="M2140 1476 c0 -19 5 -24 20 -23 14 1 20 8 20 24 0 16 -6 23 -20 23
-15 0 -20 -7 -20 -24z"/>
<path d="M1175 1366 c-60 -34 -297 -170 -525 -301 -228 -131 -432 -248 -453
-260 -43 -25 -43 -25 43 -72 30 -17 125 -70 210 -118 85 -48 243 -137 350
-198 107 -60 253 -143 323 -183 71 -41 133 -74 139 -74 10 0 84 41 623 352
426 246 505 292 505 300 0 3 -109 68 -242 144 -134 76 -317 180 -408 232 -91
52 -185 106 -210 119 -25 14 -84 47 -131 74 -48 27 -93 49 -100 49 -8 0 -63
-29 -124 -64z"/>
<path d="M3425 1387 c-33 -18 -74 -42 -90 -53 -17 -12 -59 -37 -95 -56 -36
-19 -94 -52 -128 -72 -35 -20 -67 -36 -70 -36 -3 0 -13 -6 -21 -14 -9 -7 -50
-31 -91 -53 -41 -22 -91 -50 -110 -61 -19 -12 -57 -33 -85 -48 -27 -15 -52
-30 -55 -34 -3 -4 -21 -15 -40 -24 -19 -8 -53 -26 -75 -38 -22 -13 -59 -34
-82 -47 -23 -13 -40 -28 -37 -32 3 -5 -2 -6 -10 -3 -9 3 -16 2 -16 -2 1 -8
181 -114 414 -244 35 -19 70 -40 77 -45 34 -26 117 -64 124 -57 5 4 5 2 1 -5
-4 -8 9 -20 36 -34 24 -12 99 -54 168 -94 69 -40 143 -83 165 -95 22 -12 59
-34 83 -47 l43 -25 47 24 c26 14 65 35 87 48 42 24 201 114 345 196 47 26 87
50 90 53 5 6 85 49 175 95 22 12 42 24 45 27 3 3 37 23 75 44 39 22 84 47 100
56 17 10 49 27 73 39 24 11 42 26 40 32 -2 6 -24 21 -48 35 -53 29 -161 91
-242 140 -33 19 -63 31 -70 27 -7 -4 -10 -4 -6 1 8 8 -48 47 -140 96 -31 16
-73 39 -92 51 -190 115 -503 288 -516 287 -5 0 -36 -15 -69 -32z"/>
</g>
</svg>
